:FULLY-SPECIFIED
:FORCE-ALL-JOINTS-BE-3DOF
:DEGREES
713
root 5.51014 21.3588 7.3878 -110.631 -86.6042 126.866
lfemur -34.5345 -12.2265 8.90365
ltibia 70.7525 0 0
lfoot 7.19119 -8.76485 0
ltoes 30.1894 0 0
rfemur -33.1914 -1.39202 -0.430535
rtibia 90.3198 0 0
rfoot 19.431 -18.7072 0
rtoes 39.5564 0 0
lowerback 6.01456 -0.890802 -1.79368
upperback -1.27792 -1.4149 -1.51294
thorax -4.69253 -0.679996 -0.433056
lowerneck -6.85903 -6.21076 -2.25053
upperneck -0.20901 -8.25582 4.84155
head 1.41957 -4.06382 1.61694
lclavicle 7.7911e-16 -1.43638e-15 0
lhumerus 0.833827 -21.6507 16.6402
lradius 46.7699 0 0
lwrist 23.2479 0 0
lhand -21.6312 -3.21373 0
lfingers 7.12502 0 0
lthumb 4.76476 26.71 0
rclavicle 7.7911e-16 -1.43638e-15 0
rhumerus -12.6414 -2.77148 -27.3642
rradius 98.8303 0 0
rwrist -9.93894 0 0
rhand -27.5417 -35.3328 0
rfingers 7.12502 0 0
rthumb -0.943268 -785.31 0
714
root 5.51632 21.5248 7.5857 -114.811 -88.5347 131.091
lfemur -34.2732 -13.513 9.15372
ltibia 69.0394 0 0
lfoot 6.68345 -8.29926 0
ltoes 30.7132 0 0
rfemur -33.219 -1.14835 -1.23526
rtibia 91.4966 0 0
rfoot 20.8563 -19.1874 0
rtoes 40.821 0 0
lowerback 6.14711 -0.699867 -1.84115
upperback -1.26194 -1.16723 -1.5753
thorax -4.75466 -0.555866 -0.47938
lowerneck -6.80973 -6.29731 -2.34534
upperneck -0.317173 -8.36323 4.91648
head 1.38488 -4.11871 1.65447
lclavicle 3.77691e-15 -7.95139e-16 0
lhumerus -0.00677256 -20.6113 16.0088
lradius 45.2287 0 0
lwrist 22.9737 0 0
lhand -21.8284 -3.2593 0
lfingers 7.12502 0 0
lthumb 4.57444 26.6713 0
rclavicle 3.77691e-15 -7.95139e-16 0
rhumerus -11.6072 -2.62759 -27.0112
rradius 99.2225 0 0
rwrist -9.63092 0 0
rhand -27.5551 -34.9797 0
rfingers 7.12502 0 0
rthumb -0.956194 -784.957 0
715
root 5.47463 21.3796 7.79503 -116.379 -86.0925 132.969
lfemur -34.1014 -13.162 8.43954
ltibia 68.1088 0 0
lfoot 5.57865 -7.86102 0
ltoes 29.8864 0 0
rfemur -33.0393 -2.151 -0.954546
rtibia 92.0929 0 0
rfoot 20.6958 -18.3869 0
rtoes 40.0268 0 0
lowerback 6.01101 -0.447639 -1.8285
upperback -1.27531 -0.825384 -1.55819
thorax -4.69329 -0.385638 -0.48622
lowerneck -6.80888 -6.36367 -2.30016
upperneck -0.368608 -8.45606 4.90676
head 1.36802 -4.16742 1.64139
lclavicle 2.59061e-15 -5.89942e-16 0
lhumerus -1.84064 -20.1241 17.7689
lradius 45.3035 0 0
lwrist 22.7872 0 0
lhand -21.9953 -3.27368 0
lfingers 7.12502 0 0
lthumb 4.41323 26.6585 0
rclavicle 2.59061e-15 -5.89942e-16 0
rhumerus -10.209 -1.44885 -28.1181
rradius 99.137 0 0
rwrist -9.42799 0 0
rhand -27.4583 -34.6036 0
rfingers 7.12502 0 0
rthumb -0.862715 -784.581 0
716
root 5.43293 21.2343 8.00435 -117.947 -83.6503 134.847
lfemur -33.9295 -12.8111 7.72536
ltibia 67.1782 0 0
lfoot 4.47386 -7.42277 0
ltoes 29.0597 0 0
rfemur -32.8596 -3.15366 -0.673832
rtibia 92.6893 0 0
rfoot 20.5353 -17.5864 0
rtoes 39.2326 0 0
lowerback 5.8749 -0.195412 -1.81585
upperback -1.28869 -0.483538 -1.54108
thorax -4.63193 -0.215409 -0.493059
lowerneck -6.80803 -6.43003 -2.25498
upperneck -0.420042 -8.54889 4.89703
head 1.35115 -4.21613 1.62831
lclavicle 1.40432e-15 -3.84745e-16 0
lhumerus -3.6745 -19.6368 19.5291
lradius 45.3783 0 0
lwrist 22.6007 0 0
lhand -22.1623 -3.28806 0
lfingers 7.12502 0 0
lthumb 4.25202 26.6457 0
rclavicle 1.40432e-15 -3.84745e-16 0
rhumerus -8.81087 -0.2701 -29.225
rradius 99.0515 0 0
rwrist -9.22506 0 0
rhand -27.3615 -34.2276 0
rfingers 7.12502 0 0
rthumb -0.769236 -784.204 0
717
root 5.39124 21.0891 8.21368 -119.516 -81.208 136.725
lfemur -33.7577 -12.4601 7.01119
ltibia 66.2476 0 0
lfoot 3.36906 -6.98453 0
ltoes 28.2329 0 0
rfemur -32.6799 -4.15631 -0.393118
rtibia 93.2856 0 0
rfoot 20.3748 -16.7859 0
rtoes 38.4384 0 0
lowerback 5.7388 0.0568159 -1.8032
upperback -1.30206 -0.141693 -1.52397
thorax -4.57056 -0.0451812 -0.499899
lowerneck -6.80717 -6.49639 -2.2098
upperneck -0.471477 -8.64172 4.88731
head 1.33429 -4.26484 1.61523
lclavicle 2.18019e-16 -1.79548e-16 0
lhumerus -5.50837 -19.1496 21.2892
lradius 45.4531 0 0
lwrist 22.4142 0 0
lhand -22.3292 -3.30244 0
lfingers 7.12502 0 0
lthumb 4.09081 26.6329 0
rclavicle 2.18019e-16 -1.79548e-16 0
rhumerus -7.41271 0.908645 -30.3318
rradius 98.966 0 0
rwrist -9.02214 0 0
rhand -27.2647 -33.8515 0
rfingers 7.12502 0 0
rthumb -0.675757 -783.828 0
718
root 5.34955 20.9438 8.423 -121.084 -78.7658 138.603
lfemur -33.5858 -12.1091 6.29701
ltibia 65.317 0 0
lfoot 2.26427 -6.54629 0
ltoes 27.4061 0 0
rfemur -32.5003 -5.15896 -0.112405
rtibia 93.8819 0 0
rfoot 20.2142 -15.9853 0
rtoes 37.6443 0 0
lowerback 5.6027 0.309044 -1.79055
upperback -1.31544 0.200153 -1.50686
thorax -4.5092 0.125047 -0.506739
lowerneck -6.80632 -6.56275 -2.16463
upperneck -0.522912 -8.73456 4.87759
head 1.31743 -4.31354 1.60215
lclavicle -9.68278e-16 2.56493e-17 0
lhumerus -7.34223 -18.6624 23.0493
lradius 45.5279 0 0
lwrist 22.2277 0 0
lhand -22.4961 -3.31682 0
lfingers 7.12502 0 0
lthumb 3.9296 26.6201 0
rclavicle -9.68278e-16 2.56493e-17 0
rhumerus -6.01454 2.08739 -31.4387
rradius 98.8805 0 0
rwrist -8.81921 0 0
rhand -27.168 -33.4754 0
rfingers 7.12502 0 0
rthumb -0.582277 -783.452 0
719
root 5.30785 20.7986 8.63233 -122.652 -76.3236 140.481
lfemur -33.414 -11.7582 5.58283
ltibia 64.3864 0 0
lfoot 1.15947 -6.10805 0
ltoes 26.5794 0 0
rfemur -32.3206 -6.16162 0.168309
rtibia 94.4783 0 0
rfoot 20.0537 -15.1848 0
rtoes 36.8501 0 0
lowerback 5.46659 0.561271 -1.7779
upperback -1.32881 0.541999 -1.48975
thorax -4.44783 0.295275 -0.513579
lowerneck -6.80547 -6.62911 -2.11945
upperneck -0.574347 -8.82739 4.86786
head 1.30057 -4.36225 1.58907
lclavicle -2.15458e-15 2.30846e-16 0
lhumerus -9.1761 -18.1751 24.8094
lradius 45.6027 0 0
lwrist 22.0412 0 0
lhand -22.663 -3.3312 0
lfingers 7.12502 0 0
lthumb 3.76839 26.6073 0
rclavicle -2.15458e-15 2.30846e-16 0
rhumerus -4.61638 3.26613 -32.5456
rradius 98.795 0 0
rwrist -8.61628 0 0
rhand -27.0712 -33.0993 0
rfingers 7.12502 0 0
rthumb -0.488798 -783.076 0
720
root 5.26616 20.6533 8.84165 -124.22 -73.8814 142.358
lfemur -33.2421 -11.4072 4.86865
ltibia 63.4558 0 0
lfoot 0.054679 -5.6698 0
ltoes 25.7526 0 0
rfemur -32.1409 -7.16427 0.449023
rtibia 95.0746 0 0
rfoot 19.8932 -14.3843 0
rtoes 36.0559 0 0
lowerback 5.33049 0.813499 -1.76524
upperback -1.34219 0.883845 -1.47264
thorax -4.38647 0.465504 -0.520418
lowerneck -6.80462 -6.69546 -2.07427
upperneck -0.625781 -8.92022 4.85814
head 1.2837 -4.41096 1.57599
lclavicle -3.34087e-15 4.36043e-16 0
lhumerus -11.01 -17.6879 26.5696
lradius 45.6775 0 0
lwrist 21.8548 0 0
lhand -22.83 -3.34557 0
lfingers 7.12502 0 0
lthumb 3.60718 26.5945 0
rclavicle -3.34087e-15 4.36043e-16 0
rhumerus -3.21821 4.44488 -33.6525
rradius 98.7095 0 0
rwrist -8.41335 0 0
rhand -26.9744 -32.7233 0
rfingers 7.12502 0 0
rthumb -0.395319 -782.699 0
721
root 5.22447 20.5081 9.05098 -125.789 -71.4392 144.236
lfemur -33.0703 -11.0563 4.15447
ltibia 62.5252 0 0
lfoot -1.05012 -5.23156 0
ltoes 24.9258 0 0
rfemur -31.9612 -8.16692 0.729737
rtibia 95.6709 0 0
rfoot 19.7327 -13.5838 0
rtoes 35.2617 0 0
lowerback 5.19439 1.06573 -1.75259
upperback -1.35556 1.22569 -1.45553
thorax -4.3251 0.635732 -0.527258
lowerneck -6.80377 -6.76182 -2.02909
upperneck -0.677216 -9.01305 4.84842
head 1.26684 -4.45967 1.56291
lclavicle -4.52717e-15 6.4124e-16 0
lhumerus -12.8438 -17.2007 28.3297
lradius 45.7523 0 0
lwrist 21.6683 0 0
lhand -22.9969 -3.35995 0
lfingers 7.12502 0 0
lthumb 3.44597 26.5817 0
rclavicle -4.52717e-15 6.4124e-16 0
rhumerus -1.82005 5.62362 -34.7593
rradius 98.624 0 0
rwrist -8.21043 0 0
rhand -26.8776 -32.3472 0
rfingers 7.12502 0 0
rthumb -0.30184 -782.323 0
